<svg id="Layer_1" data-name="Layer 1" xmlns="http://www.w3.org/2000/svg" viewBox="0 0 283.46 283.46"><defs><style>.cls-1{fill:none;stroke:#eaeaea;stroke-miterlimit:10;stroke-width:4.49px;}.cls-2{fill:#e0e0e2;}</style></defs><circle class="cls-1" cx="141.73" cy="141.73" r="134.65"/><path class="cls-2" d="M208.65,116.72l1.6-.94a8.48,8.48,0,0,1,3.72-1.15A77.47,77.47,0,0,0,166,68.51v6a71.84,71.84,0,0,1,42.62,42.18Z"/><path class="cls-2" d="M74.81,116.72a71.83,71.83,0,0,1,42.63-42.18v-6a77.52,77.52,0,0,0-47.95,46.12,8.4,8.4,0,0,1,3.72,1.15Z"/><path class="cls-2" d="M208.65,166.75A71.84,71.84,0,0,1,166,208.93v6A77.47,77.47,0,0,0,214,168.84a8.48,8.48,0,0,1-3.72-1.15Z"/><path class="cls-2" d="M74.81,166.75l-1.59.94a8.48,8.48,0,0,1-3.72,1.15A77.47,77.47,0,0,0,117.44,215v-6a71.83,71.83,0,0,1-42.63-42.18Z"/><path class="cls-2" d="M124.56,83.46l15.72,9.29a2.91,2.91,0,0,0,2.91,0l15.72-9.29a2.86,2.86,0,0,0,1.4-2.46V62.42a2.85,2.85,0,0,0-1.4-2.46l-15.72-9.29a2.86,2.86,0,0,0-2.91,0L124.56,60a2.85,2.85,0,0,0-1.4,2.46V81A2.86,2.86,0,0,0,124.56,83.46Zm4.31-19.41,12.86-7.6,12.86,7.6V79.37L141.73,87l-12.86-7.6Z"/><path class="cls-2" d="M158.91,200l-15.72-9.29a2.86,2.86,0,0,0-2.91,0L124.56,200a2.85,2.85,0,0,0-1.4,2.46v18.58a2.86,2.86,0,0,0,1.4,2.46l15.72,9.29h0a2.86,2.86,0,0,0,2.91,0l15.72-9.29h0a2.86,2.86,0,0,0,1.4-2.46V202.47a2.85,2.85,0,0,0-1.4-2.46Zm-4.31,19.41L141.73,227l-12.86-7.59V204.1l12.86-7.6,12.87,7.6Z"/><path class="cls-2" d="M86,153.48a2.85,2.85,0,0,0,1.4-2.46V132.44A2.86,2.86,0,0,0,86,130L70.31,120.7a2.86,2.86,0,0,0-2.91,0L51.68,130a2.87,2.87,0,0,0-1.41,2.46V151a2.86,2.86,0,0,0,1.41,2.46l15.72,9.29h0a2.86,2.86,0,0,0,2.91,0Zm-30-4.09V134.08l12.86-7.6,12.86,7.6v15.31L68.85,157Z"/><path class="cls-2" d="M231.79,130l-15.72-9.29a2.86,2.86,0,0,0-2.91,0L197.44,130a2.85,2.85,0,0,0-1.4,2.46V151a2.84,2.84,0,0,0,1.4,2.46l15.72,9.29h0a2.86,2.86,0,0,0,2.91,0l15.72-9.29h0a2.84,2.84,0,0,0,1.4-2.46V132.45A2.85,2.85,0,0,0,231.79,130Zm-4.32,19.4L214.61,157l-12.86-7.6V134.08l12.86-7.6,12.86,7.6Z"/><path class="cls-2" d="M157.45,120.3a15.74,15.74,0,1,0-4.61,11.11A15.76,15.76,0,0,0,157.45,120.3Zm-15.72,10a10,10,0,1,1,7.07-2.93,10,10,0,0,1-7.07,2.93Z"/><path class="cls-2" d="M154.74,141.32a2.87,2.87,0,0,0,.67,2.91l4,4.09-1,5.82h0a2.87,2.87,0,0,0,4.21,3l4.8-2.66,4.8,2.66h0a2.86,2.86,0,0,0,4.2-3l-1-5.82,4-4.09h0a2.89,2.89,0,0,0,.66-2.91,2.86,2.86,0,0,0-2.28-1.91l-5.4-.83L170,133.37h0a2.86,2.86,0,0,0-5.17,0l-2.44,5.21-5.41.83h0A2.86,2.86,0,0,0,154.74,141.32ZM164.8,144a2.84,2.84,0,0,0,2.15-1.61l.51-1.08.5,1.08a2.86,2.86,0,0,0,2.16,1.61l1.41.22-1.12,1.14a2.86,2.86,0,0,0-.77,2.46l.23,1.43-1-.57h0a2.84,2.84,0,0,0-2.77,0l-1,.57.24-1.43h0a2.89,2.89,0,0,0-.78-2.46l-1.12-1.14Z"/><path class="cls-2" d="M135.09,140.67l-3.31,16.82a2.85,2.85,0,0,0,.88,2.66l7.14,6.55h0a2.84,2.84,0,0,0,3.86,0l7.15-6.55h0a2.87,2.87,0,0,0,.87-2.66l-3.31-16.82a21.08,21.08,0,0,1-5.62,1l3,15.34-4,3.7-4-3.7,3-15.34a21.16,21.16,0,0,1-5.63-1Z"/><path class="cls-2" d="M173.17,171.83v-8.69a8.48,8.48,0,0,1-3.68-1l-2-1.12v10.85a2.74,2.74,0,0,1-2.68,2.77H118.69a2.73,2.73,0,0,1-2.68-2.77V153.32a12.91,12.91,0,0,1,12.73-13h5.36a21.42,21.42,0,0,1-8.09-5.48,18.63,18.63,0,0,0-15.71,18.5v18.51a8.45,8.45,0,0,0,8.39,8.49h46.09a8.45,8.45,0,0,0,8.39-8.49Z"/><path class="cls-2" d="M149.87,67.72a2.85,2.85,0,0,0-3.93-.91l-5.76,3.6L138.26,68h0a2.86,2.86,0,1,0-4.48,3.56L137.29,76h0a2.89,2.89,0,0,0,3.75.64l7.92-5a2.87,2.87,0,0,0,1.28-1.78,2.92,2.92,0,0,0-.37-2.16Z"/><path class="cls-2" d="M138.25,208a2.86,2.86,0,1,0-4.47,3.56l3.51,4.41h0a2.89,2.89,0,0,0,3.75.65l7.92-5a2.86,2.86,0,1,0-3-4.84l-5.75,3.6Z"/><path class="cls-2" d="M73.05,136.83l-5.75,3.6L65.38,138h0a2.85,2.85,0,1,0-4.47,3.55L64.41,146a2.9,2.9,0,0,0,3.75.65l7.92-5a2.86,2.86,0,0,0-3-4.85Z"/><path class="cls-2" d="M211.14,138a2.86,2.86,0,0,0-4.48,3.55l3.51,4.42h0a2.89,2.89,0,0,0,3.75.64l7.93-4.95a2.86,2.86,0,0,0-3-4.85l-5.76,3.6Z"/></svg>