<svg id="Layer_1" data-name="Layer 1" xmlns="http://www.w3.org/2000/svg" viewBox="0 0 283.46 283.46"><defs><style>.cls-1{fill:#e0e0e2;}.cls-2{fill:none;stroke:#eaeaea;stroke-miterlimit:10;stroke-width:4.49px;}</style></defs><path class="cls-1" d="M215.53,109.08l-72-34.2a4.29,4.29,0,0,0-3.64,0l-72,34.2a4.23,4.23,0,0,0,0,7.65l72,34.19a4.24,4.24,0,0,0,3.64,0l72-34.19a4.23,4.23,0,0,0,0-7.65Zm-73.8,33.33-62.11-29.5,62.11-29.52,62.12,29.52Z"/><path class="cls-1" d="M211.9,137.92l-70.17,33.33L71.57,137.92a4.23,4.23,0,0,0-3.64,7.64l72,34.19a4.28,4.28,0,0,0,1.82.41,4.24,4.24,0,0,0,1.81-.41l72-34.19a4.23,4.23,0,0,0-3.63-7.64Z"/><path class="cls-1" d="M211.9,166.75l-70.17,33.33L71.57,166.75a4.23,4.23,0,0,0-3.64,7.64l72,34.2a4.27,4.27,0,0,0,1.82.4,4.23,4.23,0,0,0,1.81-.4l72-34.2a4.23,4.23,0,0,0-3.63-7.64Z"/><circle class="cls-2" cx="141.73" cy="141.73" r="134.65"/></svg>