<svg id="Layer_1" data-name="Layer 1" xmlns="http://www.w3.org/2000/svg" viewBox="0 0 283.46 283.46"><defs><style>.cls-1{fill:none;stroke:#eaeaea;stroke-miterlimit:10;stroke-width:4.49px;}.cls-2{fill:#e0e0e2;}</style></defs><circle class="cls-1" cx="141.73" cy="141.73" r="134.65"/><path class="cls-2" d="M216,129.29a3.12,3.12,0,0,0-2.88-2.57H202.7a62.54,62.54,0,0,0-7.45-18l.85-.86c2.14-2.14,4.28-4.34,6.48-6.41a3.09,3.09,0,0,0,.37-4,75.93,75.93,0,0,0-17.42-17.36,3.09,3.09,0,0,0-4,.37c-1.16,1.22-2.38,2.38-3.54,3.55s-2.51,2.5-3.73,3.78a62.74,62.74,0,0,0-18-7.39V70.12a3.1,3.1,0,0,0-2.57-3.06,76.36,76.36,0,0,0-24.14,0A3.13,3.13,0,0,0,127,70.3c.06,1.29.06,2.63,0,3.91v6.24a62.74,62.74,0,0,0-18,7.39c-1.22-1.28-2.51-2.5-3.73-3.78l-3.54-3.55a3.09,3.09,0,0,0-4-.37A77.14,77.14,0,0,0,80.27,97.5a3,3,0,0,0,.37,4c2.2,2.13,4.34,4.27,6.48,6.41l.86.86a61.6,61.6,0,0,0-7.46,18c-2.45-.06-4.89-.06-7.28,0H70.07a3,3,0,0,0-2.88,2.57,78.66,78.66,0,0,0,0,24.63,3.08,3.08,0,0,0,2.75,2.57c.25,0,.55.06.8.06h9.84a61.43,61.43,0,0,0,7.58,18.15c-1.41,1.34-2.81,2.75-4.16,4.16l-3.24,3.24a3,3,0,0,0-.24,3.85,77.06,77.06,0,0,0,17.3,17.23,3,3,0,0,0,3.85-.24l.3-.31c1.41-1.46,2.81-2.87,4.22-4.28l2.81-2.81A62.41,62.41,0,0,0,127.09,203v10.57a3,3,0,0,0,2.57,2.82,78.85,78.85,0,0,0,12,1,72.34,72.34,0,0,0,12-1,3.06,3.06,0,0,0,2.57-2.82V203a62.3,62.3,0,0,0,18.09-7.46c.92,1,1.9,1.9,2.81,2.81l4.59,4.59a3,3,0,0,0,3.85.24A74.65,74.65,0,0,0,203,186a3,3,0,0,0-.25-3.85,11.08,11.08,0,0,0-.91-.92l-6.48-6.48a63.34,63.34,0,0,0,7.58-18.15h10.63a3,3,0,0,0,2.75-2.57,74.83,74.83,0,0,0,1-12.29,120.5,120.5,0,0,0-1.22-12.4Zm-5.69,21H200a3.13,3.13,0,0,0-2.81,2.45,56,56,0,0,1-8.56,20.47,3.16,3.16,0,0,0,0,3.49,5.66,5.66,0,0,0,1,1.1c1.77,1.71,3.55,3.48,5.32,5.25l1.28,1.29a69.63,69.63,0,0,1-12.22,12.16l-6.6-6.6a6.22,6.22,0,0,0-1.16-1,3.08,3.08,0,0,0-3.37,0,55.49,55.49,0,0,1-20.35,8.38,3.09,3.09,0,0,0-2.38,2.26,8,8,0,0,0-.19,1.83c.06,2.2.06,4.34.06,6.54v2.51a71.55,71.55,0,0,1-16.93,0V208c0-2.2,0-4.34.06-6.54a8.6,8.6,0,0,0-.18-1.83,3,3,0,0,0-2.38-2.26,54.7,54.7,0,0,1-20.36-8.38,3.06,3.06,0,0,0-3.36,0,5.92,5.92,0,0,0-1.16,1c-1.28,1.34-2.63,2.69-4,4-.86.86-1.78,1.71-2.63,2.63a69.69,69.69,0,0,1-12.23-12.16l1.29-1.29c1.77-1.77,3.48-3.54,5.31-5.25a7.35,7.35,0,0,0,.92-1.1,3,3,0,0,0,0-3.49,56,56,0,0,1-8.56-20.47A3,3,0,0,0,83,150.31a2.49,2.49,0,0,0-.67,0H72.57a69.24,69.24,0,0,1,0-17.42H73c2.75,0,5.62,0,8.44.06a10.63,10.63,0,0,0,2.07-.18,2.94,2.94,0,0,0,2.2-2.38,56.69,56.69,0,0,1,8.38-20.17,3.2,3.2,0,0,0,.06-3.37,12,12,0,0,0-1.71-1.95l-5.81-5.81A68.45,68.45,0,0,1,99,86.68l1.71,1.72c1.53,1.52,3.06,3,4.52,4.58a7.17,7.17,0,0,0,2,1.47,3.13,3.13,0,0,0,2.93-.25,55.45,55.45,0,0,1,20.24-8.31,3.14,3.14,0,0,0,2.38-2.2,8,8,0,0,0,.18-1.77c-.06-1.41-.06-2.75,0-4.16V72.69a70.51,70.51,0,0,1,16.93,0v9.23a7.45,7.45,0,0,0,.19,1.77,3,3,0,0,0,2.38,2.2,55.41,55.41,0,0,1,20.23,8.31,3.15,3.15,0,0,0,2.94.25,7.1,7.1,0,0,0,2-1.47c1.47-1.53,3-3.06,4.53-4.58l1.71-1.72A69.36,69.36,0,0,1,196.28,99l-5.8,5.81a11.13,11.13,0,0,0-1.71,2,3,3,0,0,0,.06,3.36,57,57,0,0,1,8.37,20.17,3.14,3.14,0,0,0,2.2,2.39,5.74,5.74,0,0,0,2.08.18c2.81-.12,5.68-.06,8.44-.06h.42a69.3,69.3,0,0,1,.55,8.74,68.05,68.05,0,0,1-.55,8.8Z"/><path class="cls-2" d="M173.67,118.47a38.32,38.32,0,0,0-9.17-9.11,39.6,39.6,0,0,0-46.15,0,39.73,39.73,0,0,0-16.14,25.79,38.82,38.82,0,0,0-.55,6.48,45.56,45.56,0,0,0,.49,6.42,39.48,39.48,0,0,0,7,16.81,38.94,38.94,0,0,0,9.11,9,40.11,40.11,0,0,0,16.75,6.9,40.68,40.68,0,0,0,12.59,0,40.11,40.11,0,0,0,16.75-6.9,41.33,41.33,0,0,0,9.1-9,39.23,39.23,0,0,0,7-16.81,40.27,40.27,0,0,0-.06-12.9,37.32,37.32,0,0,0-6.78-16.68Zm.91,28.6A33.47,33.47,0,0,1,161,168.89a32.86,32.86,0,0,1-14.12,5.81,34.84,34.84,0,0,1-10.69,0A33.51,33.51,0,0,1,122,168.89a34.66,34.66,0,0,1-7.7-7.64,33.61,33.61,0,0,1-5.93-14.18,31.61,31.61,0,0,1-.43-5.44,33,33,0,0,1,.43-5.5A33.82,33.82,0,0,1,114.2,122a33.67,33.67,0,0,1,21.88-13.5,33.81,33.81,0,0,1,10.75,0,33,33,0,0,1,14.12,5.8,34.41,34.41,0,0,1,7.77,7.7,33.94,33.94,0,0,1,5.86,14.12,32,32,0,0,1,.43,5.5A39,39,0,0,1,174.58,147.07Z"/><path class="cls-2" d="M157,128.06l-21.7,20.6L126,138.94a3.07,3.07,0,0,0-4.4,4.28l11.49,11.92a3.12,3.12,0,0,0,2.2.92,3.28,3.28,0,0,0,2.14-.86l24-22.73a3.08,3.08,0,0,0,.12-4.34,3.17,3.17,0,0,0-4.46-.07Z"/></svg>