<svg id="Layer_1" data-name="Layer 1" xmlns="http://www.w3.org/2000/svg" viewBox="0 0 283.46 283.46"><defs><style>.cls-1{fill:none;stroke:#eaeaea;stroke-miterlimit:10;stroke-width:4.49px;}.cls-2{fill:#e0e0e2;}</style></defs><circle class="cls-1" cx="141.73" cy="141.73" r="134.65"/><path class="cls-2" d="M101.68,210.88H84.38a10.31,10.31,0,0,1-10.24-10.27V152.46a10.25,10.25,0,0,1,10.24-10.12h17.3a10.18,10.18,0,0,1,10.22,10.12v48.16a10.22,10.22,0,0,1-10.22,10.26"/><path class="cls-2" d="M145,72.58h-17.4a10.18,10.18,0,0,0-10.12,10.18V200.61a10.21,10.21,0,0,0,10.12,10.27H145a10.22,10.22,0,0,0,10.12-10.27V82.76A10.18,10.18,0,0,0,145,72.58Z"/><path class="cls-2" d="M201.66,162.82h0a4.32,4.32,0,0,1,0,8.63h0a4.28,4.28,0,0,1-4.29-4.32,4.33,4.33,0,0,1,4.31-4.31"/><path class="cls-2" d="M201.66,172.9l3,0a4.68,4.68,0,0,1,4.62,4.63c.05,3.77,0,7.55,0,11.32a4.51,4.51,0,0,1-2.33,4,1,1,0,0,0-.54,1c0,4.23-.06,8.46,0,12.69a4,4,0,0,1-3.95,4.31h-.36a19.09,19.09,0,0,1-2.4-.16,3.64,3.64,0,0,1-2.87-3.52c0-2.24,0-4.48,0-6.72h0c0-2.21,0-4.42,0-6.64a.92.92,0,0,0-.52-1,4.51,4.51,0,0,1-2.34-4c0-3.8,0-7.6,0-11.4a4.68,4.68,0,0,1,4.61-4.57c1,0,2,0,3,0"/><path class="cls-2" d="M192.24,207.27c0-1.6,0-3.2,0-4.8v-1.74a2.26,2.26,0,0,1,0-.26v-4.93a8.89,8.89,0,0,1-2.85-6.6c0-3.69-.05-7.62,0-11.5a9.25,9.25,0,0,1,3.82-7.38,8.68,8.68,0,0,1-.49-2.94,9,9,0,0,1,5.68-8.32V120.07A10.24,10.24,0,0,0,188.16,110H170.87a10.19,10.19,0,0,0-10.23,10.12v80.55a10.24,10.24,0,0,0,10.23,10.26h17.29a10,10,0,0,0,4.53-1.09,8.09,8.09,0,0,1-.45-2.52Z"/></svg>