<svg id="Layer_1" data-name="Layer 1" xmlns="http://www.w3.org/2000/svg" viewBox="0 0 592.05 94.91"><defs><style>.cls-1{fill:#133ad8;}.cls-2{fill:none;stroke:#133ad8;stroke-miterlimit:10;stroke-width:0.88px;}</style></defs><path class="cls-1" d="M125.58,11.94H104.83V.78h54.31V11.94H138.49V69.27H125.58Z"/><path class="cls-1" d="M155.9,46V69.27h-12V20h12v8.71c2.45-6.26,6.27-8.71,12.63-8.71h5.77V30h-7.73C158.94,30,155.9,36.59,155.9,46Z"/><path class="cls-1" d="M223.61,69.27h-12V61.64c-2.74,5.38-8.31,8.42-15.36,8.42-11.15,0-18.39-8-18.39-19.57V20h12v28c0,6.75,4.11,11.45,10.28,11.45,6.75,0,11.44-5.28,11.44-12.52V20h12Z"/><path class="cls-1" d="M225.85,52.84h11c.49,4.69,4.11,7.63,9.49,7.63,4.7,0,7.83-2.35,7.83-5.29,0-11-27-.49-27-21.33,0-8.61,7.53-14.67,17.71-14.67,11.54,0,19.47,6.36,20,16h-11c-.69-4.6-4.9-7-8.71-7-4.31,0-7.14,2-7.14,5.28,0,10.67,27.39-1.07,27.39,21.23,0,9.3-7.53,15.37-19.08,15.37C234.37,70.06,226.44,63.4,225.85,52.84Z"/><path class="cls-1" d="M288,5.09V20h13.7V30H288V51.56c0,5,2.64,7.54,7.14,7.54h6.56V69.27h-7.93C283,69.27,276,63,276,52.05V30h-9.69V20H276V5.09Z"/><path class="cls-1" d="M307.45.78h9.3l23.28,60,23.29-60h9.29V69.27h-6.55V11l-22.9,58.31H336.9L314,11V69.27h-6.56Z"/><path class="cls-1" d="M400.4,19.18c13.5,0,22.6,9.19,22.6,22.79a31.08,31.08,0,0,1-.2,3.23H383.37c.39,11.06,8,19.18,17.91,19.18,8.7,0,14.18-3.91,15.85-10.66h6.45c-1.56,9.88-10.07,16.34-22.3,16.34-14,0-24.17-11.16-24.17-25.83C377.11,29.26,386.5,19.18,400.4,19.18Zm16.14,20.35c-.69-9.1-6.75-14.68-16.14-14.68-9,0-15.07,5.48-16.64,14.68Z"/><path class="cls-1" d="M427.49,44.62c0-14.09,8.32-25.44,24-25.44,7.24,0,14.09,3.91,17.12,9.68V0h6.16V69.27h-6.16v-8.9c-3,5.77-9.88,9.69-17.12,9.69C435.81,70.06,427.49,58.71,427.49,44.62Zm24.17,19.76c10.67,0,17.61-7.83,17.61-19.76s-6.94-19.77-17.61-19.77-17.61,7.83-17.61,19.77S441,64.38,451.66,64.38Z"/><path class="cls-1" d="M479.25,0h7.44V10h-7.44Zm.68,20h6.17V69.27h-6.17Z"/><path class="cls-1" d="M491,44.62c0-12.92,7.92-25.44,23.58-25.44,10.47,0,20.25,6.06,21.91,16.92h-6.06c-1-6.45-7.73-11.25-15.85-11.25-11.74,0-17.12,9.1-17.12,19.77s5.48,19.76,17.12,19.76c8.12,0,13.89-3.91,15.85-10.37h5.87c-1.76,9.88-9.3,16.05-21.72,16.05C498.91,70.06,491,57.53,491,44.62Z"/><path class="cls-1" d="M560.55,24.85c-7.63,0-14.09,4.8-14.48,10.57h-6.16c1-9.49,10.37-16.24,20.64-16.24,12.92,0,20.65,7.33,20.65,18.29v31.8H575v-9c-2.93,6-9.78,9.79-17.71,9.79-10.56,0-17.32-5.78-17.32-14.88,0-9.39,7.83-15.36,20.06-15.36H572c2.15,0,3-.88,3-2.35C575,30,569.75,24.85,560.55,24.85Zm-2.74,39.53c10.86,0,17.22-6.55,17.22-17.9V45h-15c-8.22,0-13.5,3.91-13.5,10.17C546.56,60.76,551,64.38,557.81,64.38Z"/><path class="cls-1" d="M585.89,0h6.16V69.27h-6.16Z"/><path class="cls-1" d="M125.57,82h4.13c3.54,0,6.54,2.12,6.54,6.38s-3,6.37-6.54,6.37h-4.13Zm3.93,10.66c2.21,0,4.3-1.13,4.3-4.28s-2.09-4.3-4.3-4.3H128v8.58Z"/><path class="cls-1" d="M138,82h8.49v2.08h-6.09v3.09h4.88v2.08h-4.88v3.41h6.29v2.09H138Z"/><path class="cls-1" d="M148.41,82h4.14c3.53,0,6.53,2.12,6.53,6.38s-3,6.37-6.53,6.37h-4.14Zm3.94,10.66c2.2,0,4.29-1.13,4.29-4.28a4,4,0,0,0-4.29-4.3h-1.53v8.58Z"/><path class="cls-1" d="M163,89.46,158.64,82h2.6l3,5.21,3-5.21h2.59l-4.39,7.45v5.3H163Z"/><path class="cls-1" d="M170.85,94.76V82h2.43v5.56L178.39,82h3l-4.68,5.07,5.15,7.68h-3l-3.83-5.9-1.78,1.93v4Z"/><path class="cls-1" d="M181.66,88.39a6.44,6.44,0,1,1,6.45,6.52A6.3,6.3,0,0,1,181.66,88.39Zm6.43,4.42a4.1,4.1,0,0,0,4-4.42c0-2.55-1.69-4.45-4-4.45s-4,1.9-4,4.45A4.1,4.1,0,0,0,188.09,92.81Z"/><path class="cls-1" d="M194.81,82h2.44l2.64,9.2,2.77-9.2h2.06l2.79,9.2,2.66-9.2h2.42l-3.81,12.75h-2.37l-2.71-9-2.71,9h-2.35Z"/><path class="cls-1" d="M216.79,82h2.26L224,94.76h-2.5l-1.09-3h-4.92l-1.09,3h-2.48Zm-.56,7.74h3.42l-1.71-4.66Z"/><path class="cls-1" d="M225,82h2.61l5.52,9V82h2.4V94.76H233l-5.54-9v9H225Z"/><path class="cls-1" d="M238,82h8.48v2.08h-6.08v3.09h4.88v2.08h-4.88v3.41h6.28v2.09H238Z"/><path class="cls-1" d="M251.41,90.48h2.32a2.41,2.41,0,0,0,2.6,2.33c1.37,0,2.31-.54,2.31-1.67,0-2.73-6.84-.84-6.84-5.72,0-2.1,1.8-3.55,4.39-3.55s4.51,1.55,4.62,3.93h-2.29a2.11,2.11,0,0,0-2.33-1.86c-1.26,0-2,.59-2,1.48,0,2.82,6.94.71,6.94,5.68,0,2.37-1.95,3.81-4.76,3.81S251.54,93.16,251.41,90.48Z"/><path class="cls-1" d="M265.28,89.46,260.89,82h2.6l3,5.21,3-5.21h2.58l-4.39,7.45v5.3h-2.4Z"/><path class="cls-1" d="M271.92,90.48h2.31a2.41,2.41,0,0,0,2.6,2.33c1.37,0,2.32-.54,2.32-1.67,0-2.73-6.85-.84-6.85-5.72,0-2.1,1.8-3.55,4.39-3.55s4.51,1.55,4.62,3.93H279a2.11,2.11,0,0,0-2.33-1.86c-1.26,0-2,.59-2,1.48,0,2.82,6.94.71,6.94,5.68,0,2.37-1.95,3.81-4.76,3.81S272,93.16,271.92,90.48Z"/><path class="cls-1" d="M285.87,84.09H282V82h10.11v2.08h-3.84V94.76h-2.41Z"/><path class="cls-1" d="M293.2,82h8.49v2.08h-6.08v3.09h4.88v2.08h-4.88v3.41h6.28v2.09H293.2Z"/><path class="cls-1" d="M303.63,82h2.79l3.86,9.42L314.14,82h2.77V94.76h-2.26V86.31l-3.46,8.45h-1.82l-3.48-8.45v8.45h-2.26Z"/><path class="cls-1" d="M322.34,89.46,318,82h2.6l3,5.21,3-5.21h2.58l-4.39,7.45v5.3h-2.4Z"/><path class="cls-1" d="M334,82h2.42V94.76H334Z"/><path class="cls-1" d="M338.8,82h2.6l5.52,9V82h2.41V94.76h-2.59l-5.54-9v9h-2.4Z"/><path class="cls-1" d="M351.72,82h8.49v2.08h-6.09v3.24H359v2.08h-4.89v5.35h-2.4Z"/><path class="cls-1" d="M360.65,88.39a6.44,6.44,0,1,1,6.44,6.52A6.3,6.3,0,0,1,360.65,88.39Zm6.43,4.42a4.1,4.1,0,0,0,4-4.42c0-2.55-1.69-4.45-4-4.45s-4,1.9-4,4.45A4.1,4.1,0,0,0,367.08,92.81Z"/><path class="cls-1" d="M375.24,82h5.21c2.68,0,4.24,1.62,4.24,3.94A2.91,2.91,0,0,1,383,88.7a3.34,3.34,0,0,1,1.51,2.66l.31,3.4h-2.38l-.31-3.13A1.69,1.69,0,0,0,380.39,90h-2.75v4.79h-2.4Zm5.1,5.89a1.83,1.83,0,0,0,2-2,1.81,1.81,0,0,0-2-1.92h-2.7V87.9Z"/><path class="cls-1" d="M387,82h2.79l3.86,9.42L397.46,82h2.77V94.76H398V86.31l-3.46,8.45h-1.82l-3.48-8.45v8.45H387Z"/><path class="cls-1" d="M406.21,82h2.26l4.91,12.75h-2.49l-1.09-3h-4.92l-1.09,3h-2.48Zm-.57,7.74h3.43l-1.71-4.66Z"/><path class="cls-1" d="M415.82,84.09H412V82h10.11v2.08h-3.84V94.76h-2.41Z"/><path class="cls-1" d="M427,89.46,422.58,82h2.6l3,5.21,3-5.21h2.59l-4.39,7.45v5.3H427Z"/><path class="cls-1" d="M433.33,88.39c0-4.34,3-6.52,6.32-6.52,3.08,0,5.41,1.8,5.76,4.44H442.9a3,3,0,0,0-3.25-2.37c-2.22,0-3.89,1.55-3.89,4.45s1.67,4.42,3.89,4.42A3.1,3.1,0,0,0,443,90.46h2.4c-.25,2.64-2.58,4.45-5.72,4.45C436.27,94.91,433.33,92.72,433.33,88.39Z"/><path class="cls-1" d="M446,92.7l7.07-8.63h-6.7V82h9.39v2.06l-7.06,8.63h7.06v2.06H446Z"/><path class="cls-1" d="M457.47,82h2.6l5.52,9V82H468V94.76h-2.58l-5.54-9v9h-2.4Z"/><path class="cls-1" d="M470.39,82h8.48v2.08h-6.08v3.09h4.88v2.08h-4.88v3.41h6.28v2.09h-8.68Z"/><path class="cls-1" d="M484.57,82h4.14c3.53,0,6.54,2.12,6.54,6.38s-3,6.37-6.54,6.37h-4.14Zm3.94,10.66c2.2,0,4.29-1.13,4.29-4.28a4,4,0,0,0-4.29-4.3H487v8.58Z"/><path class="cls-1" d="M497,82h2.42V92.67h6v2.09H497Z"/><path class="cls-1" d="M510.84,82h2.25L518,94.76h-2.49l-1.1-3h-4.91l-1.1,3h-2.47Zm-.57,7.74h3.43L512,85.09Z"/><path class="cls-1" d="M522.24,90.48h2.31a2.41,2.41,0,0,0,2.6,2.33c1.37,0,2.32-.54,2.32-1.67,0-2.73-6.85-.84-6.85-5.72,0-2.1,1.8-3.55,4.39-3.55s4.51,1.55,4.62,3.93h-2.29A2.11,2.11,0,0,0,527,83.94c-1.26,0-2,.59-2,1.48,0,2.82,6.94.71,6.94,5.68,0,2.37-1.95,3.81-4.76,3.81S522.36,93.16,522.24,90.48Z"/><path class="cls-1" d="M532.7,92.7l7.06-8.63h-6.7V82h9.4v2.06l-7.07,8.63h7.07v2.06H532.7Z"/><path class="cls-1" d="M544.18,82h5.12c2.65,0,4.24,1.64,4.24,4s-1.59,4-4.24,4h-2.7v4.84h-2.42Zm5,5.89a1.94,1.94,0,1,0,0-3.87H546.6V87.9Z"/><path class="cls-1" d="M554.77,82h2.42V94.76h-2.42Z"/><path class="cls-1" d="M562.12,84.09h-3.86V82h10.11v2.08h-3.84V94.76h-2.41Z"/><path class="cls-1" d="M571.85,82h2.26L579,94.76h-2.49l-1.1-3h-4.91l-1.1,3H567Zm-.57,7.74h3.43L573,85.09Z"/><path class="cls-1" d="M580.09,82h2.42V92.67h6v2.09h-8.38Z"/><path class="cls-1" d="M589.58,82H592V94.76h-2.43Z"/><path class="cls-2" d="M80.85,75.9H32.56C15.35,75.9.84,62.34.45,45.12A31.53,31.53,0,0,1,31.94,12.9H80.22c17.22,0,31.73,13.56,32.11,30.78A31.53,31.53,0,0,1,80.85,75.9Z"/><path class="cls-1" d="M67,47.34C67.89,55.28,73.51,60,81,60A14.11,14.11,0,0,0,93.67,53h11.15c-3.2,9.88-12.21,16.38-24,16.38-14.54,0-24.71-10.18-24.71-24.81s10.75-25,25-25,24.62,10.47,24.62,25a14.48,14.48,0,0,1-.19,2.81Zm27.33-7.08c-1-7-6.69-11.43-13.47-11.43S68.57,33.19,67.12,40.26Z"/></svg>