<svg id="Layer_1" data-name="Layer 1" xmlns="http://www.w3.org/2000/svg" viewBox="0 0 283.46 283.46"><defs><style>.cls-1{fill:#e0e0e2;}.cls-2{fill:none;stroke:#eaeaea;stroke-miterlimit:10;stroke-width:4.49px;}</style></defs><path class="cls-1" d="M94.8,155.11l-.83-.82a3,3,0,0,0-4.14,0L75.36,168.78a2.91,2.91,0,0,0,0,4.13l35.15,35.2a3,3,0,0,0,2.07.87,2.91,2.91,0,0,0,2.07-.87l14.47-14.48a2.92,2.92,0,0,0,0-4.14L126,186.35l20,2.55h.37a30.18,30.18,0,0,0,15.82-4.52l.13-.08,42.39-29.23h0a9.32,9.32,0,0,0,4.09-9.62,8.85,8.85,0,0,0-13-6l-28.49,13.15a9.22,9.22,0,0,0-.75-3.26,10.26,10.26,0,0,0-6.09-5.11h-.18a31.52,31.52,0,0,0-6.93-.38,72.78,72.78,0,0,1-19.72-2.11c-21.75-5.35-35.49,9.29-38.84,13.38Zm17.78,46.78-31-31L91.9,160.49l31,31.06Zm19.66-54.53h0a77.78,77.78,0,0,0,21.16,2.28,31.8,31.8,0,0,1,5.52.24,4.19,4.19,0,0,1,2.35,2,5.18,5.18,0,0,1-.29,3.92c-2.18,1.69-8,5.17-19.33,5.17a2.93,2.93,0,0,0,0,5.85c13.36,0,20.47-4.38,23.39-6.74l33.29-15.32h.14a3.15,3.15,0,0,1,3.59.26,3.05,3.05,0,0,1,1.05,1.66,3.47,3.47,0,0,1-1.46,3.49h-.14l-42.39,29.24h0A24.39,24.39,0,0,1,146.58,183l-27.31-3.51L99,159.28c1.45-1.93,13.36-16.78,33.29-11.89Z"/><path class="cls-1" d="M105.16,74.49a2.92,2.92,0,0,0-2.92,2.92v49.71a2.94,2.94,0,0,0,2.92,2.92h87.71a2.93,2.93,0,1,0,0-5.85h-4.38V87.65a2.94,2.94,0,0,0-2.92-2.93H171A2.93,2.93,0,0,0,168,87.65v36.54h-7.31V77.41a2.9,2.9,0,0,0-2.92-2.92H143.17a2.92,2.92,0,0,0-2.92,2.92v46.78H134.4V97.88A2.94,2.94,0,0,0,131.48,95H116.86a2.92,2.92,0,0,0-2.92,2.93v26.31h-5.85V77.41a2.92,2.92,0,0,0-2.93-2.92Zm68.71,16.08h8.77v33.62h-8.77ZM146.09,80.33h8.78v43.86h-8.78ZM119.78,100.8h8.77v23.39h-8.77Z"/><circle class="cls-2" cx="141.73" cy="141.73" r="134.65"/></svg>