<svg id="Layer_1" data-name="Layer 1" xmlns="http://www.w3.org/2000/svg" viewBox="0 0 283.46 283.46"><defs><style>.cls-1{fill:none;stroke:#eaeaea;stroke-miterlimit:10;stroke-width:4.49px;}.cls-2{fill:#e0e0e2;}</style></defs><circle class="cls-1" cx="141.73" cy="141.73" r="134.65"/><path class="cls-2" d="M147.75,224.56a2.45,2.45,0,0,0,2.52,2.51h23.35a2.45,2.45,0,0,0,2.52-2.51V212H147.75Z"/><path class="cls-2" d="M215.13,138.86a5.34,5.34,0,0,0-3.6-2.34,5.74,5.74,0,0,0-5.39,2.16l-10.42,14.37c.18.36.54.54.72.9a11.07,11.07,0,0,1-.72,13.3l-.72.89a96.13,96.13,0,0,1-13.83,13.3l-3.95,3.23a3,3,0,0,1-4.32-.54,3.12,3.12,0,0,1,.36-4.31l4.14-3.23A107.49,107.49,0,0,0,190.33,164l.72-.9a4.6,4.6,0,0,0,.36-5.57,4.68,4.68,0,0,0-6.47-1.25l-22.46,15.63a13.9,13.9,0,0,0-5.21,7.18L149,205.69h29.28l19.59-11.85a15.18,15.18,0,0,0,6.83-9.17l11.13-41.32a5.69,5.69,0,0,0-.71-4.49Z"/><path class="cls-2" d="M126.73,179.1a13.9,13.9,0,0,0-5.21-7.18L99.06,156.29a4.76,4.76,0,0,0-3.41-.72,4.44,4.44,0,0,0-3.06,2,4.34,4.34,0,0,0,.36,5.57l.72.9a106.82,106.82,0,0,0,12.94,12.58l4,3.23a2.57,2.57,0,0,1,1.08,2.16,3.59,3.59,0,0,1-.72,2.33,2.57,2.57,0,0,1-2.16,1.08,3.61,3.61,0,0,1-2.33-.72l-4.13-3.23a105.91,105.91,0,0,1-13.84-13.3l-.72-.89A10.82,10.82,0,0,1,87,154a3.16,3.16,0,0,1,.72-.9L77.32,138.68a5.58,5.58,0,0,0-5.39-2.16,4.64,4.64,0,0,0-3.59,2.34,5.24,5.24,0,0,0-.72,4.31l11.14,41.32a14.82,14.82,0,0,0,6.83,9.17l19.58,12h29.29Z"/><path class="cls-2" d="M107.68,224.56a2.45,2.45,0,0,0,2.52,2.51h23.36a2.45,2.45,0,0,0,2.51-2.51V212H107.68Z"/><path class="cls-2" d="M151.88,162.39h3.06a2.06,2.06,0,0,0,2.15-2.15v-7.37h-30v7.37a2.07,2.07,0,0,0,2.15,2.15h3.06a9.93,9.93,0,0,0,19.58,0Z"/><path class="cls-2" d="M120.08,132.75a40.09,40.09,0,0,1,7,12.58h29.64a46.83,46.83,0,0,1,7-12.58,27.59,27.59,0,0,0,5.93-18.51,28,28,0,0,0-26.59-26.59,27.16,27.16,0,0,0-20.48,7.73A27.58,27.58,0,0,0,114,115.5a30.05,30.05,0,0,0,6.11,17.25ZM128,115a4.45,4.45,0,0,1,6.11,0l3.77,3.77L148.65,108a4.47,4.47,0,0,1,6.11,0,4.68,4.68,0,0,1,0,6.29l-13.84,13.84a4.06,4.06,0,0,1-2.87,1.08A4.7,4.7,0,0,1,135,127.9l-6.82-6.83A4.29,4.29,0,0,1,128,115Z"/><path class="cls-2" d="M142,79.21a6,6,0,0,0,5.93-5.93v-11a5.93,5.93,0,0,0-11.86,0v11A6,6,0,0,0,142,79.21Z"/><path class="cls-2" d="M108,89.63a6.2,6.2,0,0,0,4.14,1.8,5.46,5.46,0,0,0,4.13-1.8,6,6,0,0,0,0-8.45l-7.73-7.72a6,6,0,0,0-8.44,8.44Z"/><path class="cls-2" d="M171.83,91.6A5.45,5.45,0,0,0,176,89.81l7.72-7.73a6,6,0,0,0-8.44-8.44l-7.73,7.72a6,6,0,0,0,0,8.45A7,7,0,0,0,171.83,91.6Z"/></svg>