<svg id="Layer_1" data-name="Layer 1" xmlns="http://www.w3.org/2000/svg" viewBox="0 0 283.46 283.46"><defs><style>.cls-1{fill:none;stroke:#eaeaea;stroke-miterlimit:10;stroke-width:4.49px;}.cls-2{fill:#e0e0e2;}</style></defs><circle class="cls-1" cx="141.73" cy="141.73" r="134.65"/><path class="cls-2" d="M181.38,159.94a30.27,30.27,0,0,1,5.1.43V112.81h-26a3.76,3.76,0,0,1-3.78-3.79V82.84H104.87a3.75,3.75,0,0,0-3.79,3.78V188.89a3.76,3.76,0,0,0,3.79,3.78h47.27a23.43,23.43,0,0,1-.14-3.2,29.42,29.42,0,0,1,29.38-29.53Zm-59.2-54.84H140.8a3.78,3.78,0,0,1,0,7.56H122.18a3.75,3.75,0,0,1-3.78-3.78,3.84,3.84,0,0,1,3.78-3.78Zm0,20.36h43.06a3.79,3.79,0,0,1,0,7.57H122.18a3.76,3.76,0,0,1-3.78-3.79A3.85,3.85,0,0,1,122.18,125.46Zm0,20.37h43.06a3.78,3.78,0,1,1,0,7.56H122.18a3.75,3.75,0,0,1-3.78-3.78A3.84,3.84,0,0,1,122.18,145.83Zm20.22,27.93H122.18A3.76,3.76,0,0,1,118.4,170a3.85,3.85,0,0,1,3.78-3.79H142.4a3.79,3.79,0,0,1,0,7.57Z"/><path class="cls-2" d="M185.31,104.37,165,84a1.51,1.51,0,0,0-.73-.58v21.82H186c-.29-.44-.44-.73-.73-.87Z"/><path class="cls-2" d="M211.35,212.74l-11.78-10.91a22,22,0,1,0-40.15-12.36,21.85,21.85,0,0,0,22,22,22.93,22.93,0,0,0,12.37-3.78l10.91,11.79.29.29a4.74,4.74,0,0,0,6.4-7ZM190.69,193.4h-5.52v5.53a3.79,3.79,0,0,1-7.57,0V193.4h-5.53a3.76,3.76,0,0,1-3.78-3.78,3.86,3.86,0,0,1,3.78-3.79h5.53v-5.52a3.79,3.79,0,1,1,7.57,0v5.52h5.52a3.79,3.79,0,1,1,0,7.57Z"/></svg>