<svg id="Layer_1" data-name="Layer 1" xmlns="http://www.w3.org/2000/svg" viewBox="0 0 283.46 283.46"><defs><style>.cls-1{fill:#133ad8;}.cls-2{fill:#fff;fill-rule:evenodd;}</style></defs><circle class="cls-1" cx="141.73" cy="141.73" r="134.65" transform="translate(-58.71 141.73) rotate(-45)"/><path class="cls-2" d="M80.37,120.38h25.36v86.68H80.37Zm12.52-44a15.62,15.62,0,0,1,0,31.23c-8.45,0-15-7-15-15.62s6.58-15.61,15-15.61Zm27.87,44h25v12.11a28.84,28.84,0,0,1,24.11-13.06h6.89c16,0,28.8,13.38,28.8,29.31v58.32h-25v-8h0V160.21h0c-.31-9.87-6.88-17.52-16.59-17.52h0a18.14,18.14,0,0,0-18.16,17.52h0v46.85h-25Z"/></svg>